<?xml version="1.0" encoding="utf-8"?>
<!-- Generator: Adobe Illustrator 16.0.0, SVG Export Plug-In . SVG Version: 6.00 Build 0)  -->
<!DOCTYPE svg PUBLIC "-//W3C//DTD SVG 1.1//EN" "http://www.w3.org/Graphics/SVG/1.1/DTD/svg11.dtd">
<svg version="1.1" id="Layer_1" xmlns="http://www.w3.org/2000/svg" xmlns:xlink="http://www.w3.org/1999/xlink" x="0px" y="0px"
	 width="218.668px" height="83.667px" viewBox="0 0 218.668 83.667" enable-background="new 0 0 218.668 83.667"
	 xml:space="preserve">
<g>
	
		<text transform="matrix(1 0 0 1 77.4058 48.4736)" fill="#FFFFFF" font-family="'Futura-Medium'" font-size="26.8078" letter-spacing="-1">eyırbiyenbi</text>
	<g>
		<path fill="#FFFFFF" d="M3.825,16.986c0.02,1.889,0.462,3.762,1.153,5.52c0.532,1.357,1.152,2.684,1.756,4.01
			c4.807,10.48,9.855,20.847,15.134,31.097c0.743,1.432,1.468,2.875,2.253,4.285c0.77,1.374,1.668,2.701,2.83,3.773
			c1.853,1.768,4.34,2.823,6.891,2.98h1.176c2.627-0.131,5.191-1.23,7.076-3.067c1.119-1.06,1.984-2.356,2.735-3.691
			c0.773-1.388,1.49-2.806,2.219-4.215c3.542-6.876,6.979-13.806,10.312-20.786c1.986-4.18,3.957-8.365,5.852-12.584
			c0.785-1.754,1.497-3.573,1.764-5.493c0.495-3.233-0.215-6.637-1.946-9.419c-1.489-2.417-3.73-4.362-6.341-5.488
			c-2.028-0.877-4.268-1.271-6.476-1.146c-2.962,0.157-5.819,1.223-8.327,2.777c-2.796,1.713-5.187,3.996-7.414,6.386
			c-2.07-2.23-4.288-4.361-6.848-6.03c-2.47-1.625-5.288-2.801-8.25-3.083c-3.219-0.336-6.554,0.462-9.254,2.254
			C7.745,6.63,5.868,8.939,4.816,11.579C4.133,13.294,3.792,15.14,3.825,16.986z M34.46,18.234c0.806,0.951,1.518,1.98,2.232,3.002
			c1.204,1.763,2.297,3.608,3.179,5.555c0.72,1.619,1.299,14.5,1.523,16.261c0.165,1.396,0.126,0.619-0.387,1.945
			c-0.46,1.249-1.342,2.326-2.461,3.038c-2.664,1.724-6.465,1.54-8.88-0.55c-1.222-1.043-1.952-2.584-2.137-4.162
			C27.29,41.22,27.768,30.159,28.504,28.2C29.887,24.556,32.084,21.296,34.46,18.234z M8.305,13.77
			c0.713-2.455,2.424-4.604,4.665-5.842c1.985-1.111,4.354-1.492,6.595-1.117c2.849,0.443,5.408,1.956,7.625,3.74
			c1.629,1.308,3.095,2.805,4.5,4.345c-2.219,2.806-4.309,5.746-5.905,8.954c-1.394,2.81-2.452,5.855-2.554,9.014
			c-0.055,2.007,0.322,12.989,1.259,14.778c1.226,2.383,3.423,4.215,5.942,5.102c2.354,0.842,4.967,0.92,7.368,0.23
			c2.261-0.641,4.331-1.998,5.745-3.883c1.248-1.645,1.959-3.67,2.123-5.716c0.254-2.954-0.484-14.839-1.604-17.558
			c-1.665-3.966-4.106-7.557-6.803-10.886c1.21-1.405,2.539-2.714,3.948-3.922c2.188-1.854,4.696-3.465,7.535-4.08
			c2.294-0.516,4.77-0.26,6.874,0.807c2.464,1.229,4.355,3.538,5.071,6.2c0.545,1.955,0.425,4.062-0.226,5.978
			c-0.539,1.584-1.272,3.09-1.956,4.612c-4.755,10.367-9.75,20.626-14.965,30.771c-0.778,1.51-1.545,3.023-2.368,4.506
			c-0.671,1.196-1.454,2.375-2.559,3.212c-1.183,0.925-2.687,1.431-4.189,1.396c-1.555,0.021-3.102-0.554-4.293-1.554
			c-1.176-0.977-1.971-2.312-2.685-3.647c-1.612-3.028-3.161-6.091-4.711-9.153c-4.421-8.754-8.673-17.589-12.744-26.507
			c-0.616-1.387-1.274-2.762-1.689-4.224C7.797,17.518,7.78,15.572,8.305,13.77z"/>
	</g>
</g>
</svg>
