<?xml version="1.0" encoding="utf-8"?>
<!-- Generator: Adobe Illustrator 16.0.0, SVG Export Plug-In . SVG Version: 6.00 Build 0)  -->
<!DOCTYPE svg PUBLIC "-//W3C//DTD SVG 1.1//EN" "http://www.w3.org/Graphics/SVG/1.1/DTD/svg11.dtd">
<svg version="1.1" id="Layer_1" xmlns="http://www.w3.org/2000/svg" xmlns:xlink="http://www.w3.org/1999/xlink" x="0px" y="0px"
	 width="218.668px" height="83.667px" viewBox="0 0 218.668 83.667" enable-background="new 0 0 218.668 83.667"
	 xml:space="preserve">
<g>
	<g>
		<path fill="#32B98F" d="M2.72,16.77c0.02,1.893,0.462,3.764,1.154,5.52c0.532,1.357,1.152,2.684,1.754,4.012
			c4.808,10.48,9.856,20.85,15.136,31.098c0.742,1.432,1.465,2.873,2.251,4.285c0.77,1.373,1.669,2.699,2.832,3.773
			c1.853,1.768,4.339,2.82,6.89,2.98h1.176c2.626-0.133,5.189-1.232,7.075-3.07c1.121-1.059,1.985-2.354,2.735-3.689
			c0.775-1.387,1.493-2.805,2.221-4.213c3.543-6.877,6.979-13.809,10.311-20.789c1.987-4.178,3.958-8.365,5.853-12.582
			c0.783-1.756,1.497-3.573,1.765-5.493c0.493-3.235-0.216-6.639-1.946-9.421c-1.492-2.416-3.73-4.363-6.342-5.488
			c-2.029-0.877-4.27-1.271-6.478-1.146c-2.962,0.157-5.818,1.222-8.325,2.777c-2.797,1.712-5.188,3.997-7.415,6.388
			c-2.07-2.232-4.287-4.363-6.848-6.031c-2.47-1.627-5.289-2.803-8.251-3.084C15.05,2.26,11.714,3.059,9.014,4.85
			c-2.373,1.564-4.25,3.875-5.304,6.514C3.027,13.079,2.688,14.926,2.72,16.77z M33.354,18.018c0.806,0.951,1.519,1.981,2.232,3.002
			c1.204,1.766,2.299,3.609,3.181,5.557c0.72,1.619,1.298,14.498,1.523,16.26c0.166,1.398,0.126,0.621-0.388,1.949
			c-0.458,1.248-1.34,2.324-2.461,3.035c-2.664,1.723-6.466,1.539-8.879-0.549c-1.222-1.043-1.953-2.582-2.139-4.164
			c-0.24-2.104,0.24-13.162,0.975-15.123C28.782,24.342,30.979,21.082,33.354,18.018z M7.199,13.557
			c0.715-2.457,2.426-4.605,4.664-5.845c1.986-1.11,4.355-1.491,6.598-1.116c2.85,0.441,5.406,1.957,7.623,3.74
			c1.63,1.309,3.096,2.804,4.501,4.346c-2.219,2.807-4.309,5.744-5.906,8.953c-1.392,2.811-2.452,5.854-2.553,9.016
			c-0.056,2.004,0.321,12.99,1.257,14.775c1.226,2.383,3.425,4.217,5.943,5.104c2.354,0.84,4.968,0.918,7.369,0.23
			c2.26-0.641,4.329-2,5.745-3.885c1.248-1.645,1.959-3.668,2.123-5.717c0.253-2.951-0.484-14.839-1.605-17.555
			c-1.663-3.967-4.106-7.557-6.803-10.887c1.211-1.406,2.54-2.713,3.949-3.922c2.188-1.855,4.695-3.467,7.535-4.082
			c2.293-0.516,4.77-0.26,6.873,0.807c2.465,1.23,4.356,3.539,5.072,6.201c0.545,1.955,0.425,4.064-0.224,5.977
			c-0.541,1.584-1.275,3.092-1.958,4.615C52.646,34.68,47.65,44.938,42.436,55.081c-0.779,1.508-1.544,3.025-2.37,4.51
			c-0.671,1.195-1.452,2.371-2.559,3.209c-1.183,0.928-2.686,1.432-4.189,1.395c-1.555,0.023-3.102-0.551-4.293-1.553
			c-1.175-0.977-1.969-2.312-2.685-3.645c-1.61-3.029-3.159-6.094-4.708-9.154c-4.422-8.754-8.674-17.592-12.745-26.51
			c-0.616-1.387-1.274-2.762-1.688-4.223C6.692,17.305,6.675,15.357,7.199,13.557z"/>
	</g>
</g>
<text transform="matrix(1 0 0 1 76.2998 43.4189)" fill="#32B98F" font-family="'Futura-Medium'" font-size="26.8078" letter-spacing="-1">eyırbiyenbi</text>
</svg>
